<svg xmlns="http://www.w3.org/2000/svg" height="93.99419592108704" width="370.00000000000006" style="width: 370px; height: 93.9942px; position: absolute; top: 50%; left: 50%; transform: translate(-50%, -50%) scale(1); z-index: 0; cursor: pointer; overflow: visible;"><defs id="SvgjsDefs1001"/><g id="SvgjsG1007" featurekey="HKaMnE-0" transform="matrix(0.8221555022169876,0,0,0.8221555022169876,-0.1075089195642418,15.889421642336046)" fill="#f8b500"><g xmlns="http://www.w3.org/2000/svg"><g><polygon fill="none" points="9.46,74.131 22.758,68.04 20.054,57.927 16.189,43.476   "/><polygon fill="none" points="63.369,7.675 58.068,8.198 17.275,18.873 22.171,18.873   "/><polygon fill="none" points="42.106,92.493 42.108,92.493 42.273,92.573 41.659,90.436 41.659,90.436 41.659,90.435     21.647,20.562 11.81,20.562 17.242,40.873 17.246,40.881 20.401,52.686 20.401,52.686 21.766,57.792 29.396,86.321 37.339,90.179       "/><path fill="none" d="M35.523,29.267l14.716,49.027l29.794-11.836l-4.791-15.817c-0.013-0.031-0.025-0.062-0.035-0.095    l-9.025-29.796L35.523,29.267z"/><path fill="none" d="M23.332,20.308L43.283,89.97v0.001l0.866,3.012l0.55-0.248l0.001-0.001l3.96-1.791c0,0,0.001,0,0.001,0    l42.06-18.988L72.746,6.877L23.332,20.308z M76.831,50.058l5.044,16.654c0.127,0.421-0.089,0.868-0.497,1.03L64.73,74.358    l-14.723,5.848c-0.1,0.04-0.206,0.059-0.312,0.059c-0.126,0-0.252-0.028-0.368-0.084c-0.213-0.103-0.373-0.291-0.441-0.518    L33.657,28.928c-0.066-0.218-0.04-0.452,0.069-0.652c0.11-0.199,0.294-0.345,0.514-0.406l32.285-8.967    c0.444-0.12,0.902,0.131,1.034,0.569l9.237,30.493C76.81,49.996,76.821,50.027,76.831,50.058z"/><path d="M92.54,72.202L74.15,5.616c-0.011-0.038-0.036-0.067-0.052-0.102c-0.023-0.053-0.044-0.106-0.077-0.152    c-0.034-0.048-0.075-0.086-0.117-0.126c-0.032-0.029-0.061-0.059-0.097-0.083c-0.056-0.038-0.115-0.065-0.178-0.089    c-0.034-0.013-0.066-0.026-0.102-0.035c-0.061-0.015-0.122-0.019-0.187-0.019C73.312,5.009,73.284,4.998,73.253,5L57.836,6.524    c-0.044,0.004-0.088,0.012-0.131,0.023L10.496,18.9c-0.035,0.009-0.062,0.032-0.095,0.045c-0.038,0.015-0.073,0.03-0.108,0.051    c-0.077,0.045-0.142,0.1-0.2,0.164c-0.015,0.017-0.038,0.025-0.053,0.043c-0.005,0.006-0.005,0.014-0.009,0.021    c-0.068,0.094-0.118,0.2-0.143,0.315c-0.006,0.026-0.001,0.052-0.004,0.079c-0.008,0.069-0.021,0.137-0.011,0.208    c0.003,0.022,0.015,0.04,0.02,0.062c0.003,0.016-0.003,0.032,0.001,0.048l5.497,20.556c-0.197,0.117-0.344,0.31-0.395,0.542    L7.448,75.419c-0.055,0.25,0.009,0.511,0.17,0.711c0.16,0.199,0.405,0.315,0.661,0.315c0.121,0,0.241-0.026,0.352-0.077    l14.57-6.674l4.663,17.436c0.063,0.237,0.226,0.434,0.447,0.541l8.29,4.026c0.001,0,0.001,0,0.002,0l4.768,2.314    c0.001,0,0.001,0.001,0.002,0.001l1.864,0.902c0.002,0.001,0.004,0.001,0.006,0.001c0.002,0.001,0.004,0.003,0.006,0.004    C43.36,94.974,43.482,95,43.604,95c0.11,0,0.217-0.027,0.319-0.069c0.009-0.004,0.02-0.002,0.029-0.006l1.443-0.651    c0,0,0.001,0,0.001,0l3.96-1.791l0.001-0.001l42.718-19.285C92.453,73.026,92.651,72.604,92.54,72.202z M58.068,8.198l5.301-0.524    L22.171,18.873h-4.896L58.068,8.198z M22.758,68.04L9.46,74.131l6.729-30.655l3.865,14.451L22.758,68.04z M21.766,57.792    l-1.365-5.106v0.001l-3.155-11.805c-0.001-0.003-0.004-0.005-0.004-0.008L11.81,20.562h9.837l20.012,69.873c0,0,0,0,0,0l0,0    l0.614,2.138l-0.166-0.08l-0.002,0l-4.767-2.313l-7.943-3.858L21.766,57.792z M48.66,90.943    C48.66,90.943,48.659,90.943,48.66,90.943l-3.96,1.791l-0.001,0.001l-0.55,0.248l-0.866-3.012V89.97L23.332,20.308L72.746,6.877    l17.973,65.078L48.66,90.943z"/><path d="M66.525,18.903L34.24,27.87c-0.219,0.061-0.404,0.207-0.514,0.406c-0.11,0.2-0.135,0.434-0.069,0.652l15.229,50.735    c0.068,0.227,0.229,0.415,0.441,0.518c0.116,0.056,0.242,0.084,0.368,0.084c0.106,0,0.212-0.02,0.312-0.059l14.723-5.848    l16.648-6.615c0.408-0.163,0.624-0.61,0.497-1.03l-5.044-16.654c-0.009-0.031-0.021-0.063-0.034-0.093L67.56,19.472    C67.427,19.034,66.969,18.783,66.525,18.903z M75.243,50.642l4.791,15.817L50.239,78.295L35.523,29.267l30.659-8.516l9.025,29.796    C75.217,50.58,75.229,50.612,75.243,50.642z"/></g></g></g><g id="SvgjsG1008" featurekey="J3GnXt-0" transform="matrix(2.856559761226893,0,0,2.856559761226893,84.8010580199784,16.05998803830544)" fill="#111111"><path d="M6.82 5.84 c1.2933 0 2.32 0.32 3.08 0.96 s1.14 1.5 1.14 2.58 c0 1.5333 -0.81334 2.5734 -2.44 3.12 l0 0.04 l0.02 0 c0.92 0.10666 1.6567 0.49 2.21 1.15 s0.83 1.45 0.83 2.37 c0 1.1867 -0.45666 2.14 -1.37 2.86 s-2.09 1.08 -3.53 1.08 l-4.94 0 l0 -14.16 l5 0 z M6.42 11.72 c0.8 0 1.43 -0.18334 1.89 -0.55 s0.69 -0.89 0.69 -1.57 c0 -0.64 -0.2 -1.1467 -0.6 -1.52 s-0.92666 -0.56 -1.58 -0.56 l-3.08 0 l0 4.2 l2.68 0 z M6.64 18.32 c0.94666 0 1.68 -0.22 2.2 -0.66 s0.78 -1.02 0.78 -1.74 c0 -0.8 -0.26334 -1.42 -0.79 -1.86 s-1.27 -0.66 -2.23 -0.66 l-2.86 0 l0 4.92 l2.9 0 z M15.76 4.880000000000001 l0.000019531 7.1 l0.04 0 c0.25334 -0.53334 0.66334 -0.95 1.23 -1.25 s1.1967 -0.45 1.89 -0.45 c1.0533 0 1.89 0.32 2.51 0.96 s0.93 1.5 0.93 2.58 l0 6.18 l-1.8 0 l0 -5.66 c0 -0.73334 -0.19 -1.3133 -0.57 -1.74 s-0.91 -0.64 -1.59 -0.64 c-0.84 0 -1.4867 0.27334 -1.94 0.82 s-0.68668 1.3 -0.70002 2.26 l0 4.96 l-1.8 0 l0 -15.12 l1.8 0 z M34.58 4.880000000000001 l-0.000019531 15.12 l-1.8 0 l0 -1.36 l-0.04 0 c-0.34666 0.50666 -0.81666 0.9 -1.41 1.18 s-1.2233 0.42 -1.89 0.42 c-1.4267 -0.01334 -2.5834 -0.48668 -3.47 -1.42 s-1.3367 -2.12 -1.35 -3.56 c0 -1.4533 0.44334 -2.64 1.33 -3.56 s2.05 -1.3933 3.49 -1.42 c0.65334 0 1.28 0.14 1.88 0.42 s1.0733 0.67334 1.42 1.18 l0.04 0 l0 -7 l1.8 0 z M26.54 15.26 c0 0.97334 0.28666 1.7633 0.86 2.37 s1.3267 0.91666 2.26 0.93 c0.94666 0 1.7033 -0.30334 2.27 -0.91 s0.85 -1.4033 0.85 -2.39 c0 -0.97334 -0.28 -1.7633 -0.84 -2.37 s-1.3267 -0.91666 -2.3 -0.93 c-0.93334 0 -1.6833 0.30666 -2.25 0.92 s-0.85 1.4067 -0.85 2.38 z M48.019999999999996 10.28 c1.4 0 2.5434 0.45998 3.43 1.38 s1.3433 2.12 1.37 3.6 c0 1.48 -0.45334 2.6766 -1.36 3.59 s-2.06 1.3767 -3.46 1.39 c-0.69334 0 -1.34 -0.14666 -1.94 -0.44 s-1.0533 -0.68 -1.36 -1.16 l-0.04 0 l0 7 l-1.8 0 l0 -15.12 l1.8 0 l0 1.36 l0.04 0 c0.36 -0.50666 0.83334 -0.9 1.42 -1.18 s1.22 -0.42 1.9 -0.42 z M44.66 15.26 c0 0.98666 0.28998 1.7833 0.86998 2.39 s1.33 0.91 2.25 0.91 c0.96 0 1.7167 -0.30334 2.27 -0.91 s0.83668 -1.4033 0.85002 -2.39 c0 -0.98666 -0.28334 -1.78 -0.85 -2.38 s-1.33 -0.90666 -2.29 -0.92 c-0.94666 0 -1.7 0.31 -2.26 0.93 s-0.84 1.41 -0.84 2.37 z M59.66 10.28 c1.4 0 2.5866 0.48338 3.56 1.45 s1.4667 2.1434 1.48 3.53 c0 1.4 -0.48666 2.5734 -1.46 3.52 s-2.1666 1.4333 -3.58 1.46 c-1.3867 0 -2.5666 -0.48 -3.54 -1.44 s-1.4733 -2.14 -1.5 -3.54 c0 -1.3733 0.48334 -2.54 1.45 -3.5 s2.1634 -1.4533 3.59 -1.48 z M56.54 15.26 c0 0.97334 0.28664 1.7633 0.85998 2.37 s1.3267 0.91666 2.26 0.93 c0.94666 0 1.7 -0.30334 2.26 -0.91 s0.84666 -1.4033 0.86 -2.39 c0 -0.97334 -0.28 -1.7633 -0.84 -2.37 s-1.3267 -0.91666 -2.3 -0.93 c-0.94666 0 -1.7 0.31334 -2.26 0.94 s-0.84 1.4133 -0.84 2.36 z M70.16 10.28 c0.72 0 1.3633 0.13338 1.93 0.40004 s1.0033 0.65332 1.31 1.16 l-1.4 1.06 c-0.53334 -0.62666 -1.18 -0.94 -1.94 -0.94 c-0.45334 0 -0.83 0.1 -1.13 0.3 s-0.45 0.45334 -0.45 0.76 c0 0.66666 0.62 1.12 1.86 1.36 c1.2133 0.22666 2.07 0.56 2.57 1 s0.75 1.0667 0.75 1.88 c0 0.92 -0.35 1.6433 -1.05 2.17 s-1.6367 0.79666 -2.81 0.81 c-0.88 0 -1.6033 -0.13666 -2.17 -0.41 s-1.0567 -0.69668 -1.47 -1.27 l1.36 -1.12 c0.72 0.74666 1.4867 1.12 2.3 1.12 c0.53334 0 0.98668 -0.10666 1.36 -0.32 s0.56 -0.50668 0.56 -0.88002 c0 -0.65334 -0.6 -1.1067 -1.8 -1.36 c-1.3333 -0.26666 -2.23 -0.62332 -2.69 -1.07 s-0.69 -1.0233 -0.69 -1.73 c0 -0.88 0.34 -1.5833 1.02 -2.11 s1.54 -0.79666 2.58 -0.81 z M78.33999999999999 7.859999999999999 l-0.000019531 2.66 l2.58 0 l0 1.56 l-2.58 0 l0 4.56 c0 0.61334 0.08666 1.0867 0.26 1.42 s0.54 0.5 1.1 0.5 c0.53334 0 0.96 -0.09334 1.28 -0.28 l0 1.64 c-0.34666 0.18666 -0.89332 0.29332 -1.64 0.31998 c-0.72 0 -1.2767 -0.11 -1.67 -0.33 s-0.68 -0.52666 -0.86 -0.92 s-0.27 -1.01 -0.27 -1.85 l0 -5.06 l-2.08 0 l0 -1.56 l2.08 0 l0 -2.66 l1.8 0 z M87.58 10.28 c1.4533 0 2.5834 0.45664 3.39 1.37 s1.2167 2.17 1.23 3.77 l0 0.5 l-7.6 0 c0 0.77334 0.31 1.4233 0.93 1.95 s1.3767 0.79666 2.27 0.81 c0.98666 0 1.8533 -0.47334 2.6 -1.42 l1.36 1.04 c-1.0133 1.2933 -2.4134 1.94 -4.2 1.94 c-1.4533 0 -2.6234 -0.46334 -3.51 -1.39 s-1.3433 -2.1234 -1.37 -3.59 c0 -1.4133 0.45666 -2.59 1.37 -3.53 s2.09 -1.4233 3.53 -1.45 z M90.28 14.48 c-0.02666 -0.89334 -0.28 -1.5767 -0.76 -2.05 s-1.14 -0.71 -1.98 -0.71 c-0.56 0 -1.0633 0.13666 -1.51 0.41 s-0.79666 0.62668 -1.05 1.06 s-0.38 0.86334 -0.38 1.29 l5.68 0 z M99.04 10.28 c0.33334 0 0.6 0.04 0.8 0.12 l-0.08 1.94 c-0.34666 -0.09334 -0.64666 -0.14 -0.9 -0.14 c-1.7733 0 -2.6734 0.98666 -2.7 2.96 l0 4.84 l-1.8 0 l0 -9.48 l1.8 0 l0 1.46 l0.04 0 c0.24 -0.50666 0.62666 -0.91666 1.16 -1.23 s1.0933 -0.47 1.68 -0.47 z"/></g></svg>