<svg viewBox="0 0 42 32" xmlns="http://www.w3.org/2000/svg"><mask id="a" height="31.9" maskUnits="userSpaceOnUse" width="41.1" x="7" y="4"><path d="M0 0h56v40H0z" fill="#fff"/></mask><path d="M-7-4h56v40H-7z" fill="none"/><g mask="url(#a)" transform="translate(-7 -4)"><path d="M47.2 35.5l.1.1c0-.1 0-.1-.1-.1zm.1 0c.1 0 .1 0 0 0 .1 0 .1.1.1.1v.1h-.1l.1.1h-.1l-.1-.1v.1h-.1v-.3zm0 .4h.1s.1 0 .1-.1c0 0 0-.1.1-.1v-.2s0-.1-.1-.1c0 0-.1 0-.1-.1h-.2s-.1 0-.1.1c0 0 0 .1-.1.1v.2s0 .1.1.1c0 0 .1 0 .1.1zm0-.6h.1s.1 0 .1.1l.1.1v.2s0 .1-.1.1l-.1.1h-.2s-.1 0-.1-.1l-.1-.1v-.2s0-.1.1-.1l.1-.1zm-31.4-1.2c0-.6.4-1.1 1-1.1s1 .5 1 1.1-.4 1.1-1 1.1-1-.5-1-1.1zm2.7 0v-1.7h-.7v.4c-.2-.3-.6-.5-1.1-.5-.9 0-1.7.7-1.7 1.8 0 1 .7 1.8 1.7 1.8.5 0 .8-.2 1.1-.5v.4h.7zm24.7 0c0-.6.4-1.1 1-1.1s1 .5 1 1.1-.4 1.1-1 1.1-1-.5-1-1.1zm2.8 0v-3h-.7v1.8c-.2-.3-.6-.5-1.1-.5-.9 0-1.7.7-1.7 1.8 0 1 .7 1.8 1.7 1.8.5 0 .8-.2 1.1-.5v.4h.7zM27.7 33c.5 0 .8.3.9.8h-1.7c0-.5.3-.8.8-.8zm0-.7c-1 0-1.7.7-1.7 1.8s.7 1.8 1.7 1.8c.5 0 1-.1 1.4-.5l-.4-.5c-.3.2-.6.4-1 .4-.5 0-.9-.2-1-.8h2.5v-.3c.1-1.2-.6-1.9-1.5-1.9zm8.8 1.8c0-.6.4-1.1 1-1.1s1 .5 1 1.1-.4 1.1-1 1.1-1-.5-1-1.1zm2.8 0v-1.7h-.7v.4c-.2-.3-.6-.5-1.1-.5-.9 0-1.7.7-1.7 1.8 0 1 .7 1.8 1.7 1.8.5 0 .8-.2 1.1-.5v.4h.7zm-6.9 0c0 1 .7 1.8 1.8 1.8.5 0 .8-.1 1.2-.4l-.4-.6c-.3.2-.6.3-.9.3-.6 0-1-.4-1-1.1s.4-1.1 1-1.1c.3 0 .6.1.9.3l.4-.6c-.4-.3-.7-.4-1.2-.4-1.1 0-1.8.8-1.8 1.8zm9.5-1.8c-.4 0-.7.2-.9.5v-.4h-.7v3.4h.7v-1.9c0-.6.2-.9.7-.9.1 0 .3 0 .5.1l.2-.7c-.2-.1-.4-.1-.5-.1zm-19.7.4c-.4-.2-.8-.4-1.4-.4-.9 0-1.4.4-1.4 1.1 0 .5.4.9 1.2 1h.3c.4.1.6.2.6.4 0 .3-.3.4-.8.4s-.9-.2-1.1-.4l-.3.6c.4.3.9.4 1.5.4 1 0 1.5-.5 1.5-1.1s-.4-.9-1.2-1l-.3-.1c-.3 0-.6-.1-.6-.3s.2-.4.6-.4.8.2 1.1.3zm9.5-.4c-.4 0-.7.2-.9.5v-.4h-.7v3.4h.7v-1.9c0-.6.2-.9.7-.9.1 0 .3 0 .5.1l.2-.7c-.2-.1-.4-.1-.5-.1zm-6.3.1h-1.2v-1h-.7v1h-.7v.7h.7v1.5c0 .8.3 1.2 1.2 1.2.3 0 .7-.1.9-.3l-.2-.5c-.2.1-.5.2-.6.2-.4 0-.5-.2-.5-.6v-1.5h1.2v-.7zm-10.9 3.4v-2.1c0-.8-.5-1.3-1.3-1.3-.4 0-.9.1-1.2.6-.2-.4-.6-.6-1.1-.6-.4 0-.7.1-1 .5v-.4h-.8v3.4h.7V34c0-.6.3-.9.8-.9s.7.3.7.9v1.9h.7V34c.2-.7.5-1 1-1s.7.3.7.9v1.9z" fill="#231f20"/><path d="M47.7 25.1v-1h-.1l-.1.7-.1-.7h-.1v1h.1v-.8l.1.7h.1l.1-.7zm-.9 0v-.8h.2v-.2h-.4v.2h.2z" fill="#f79410"/><path d="M33.1 26.7H22v-20h11.1z" fill="#ff5f00"/><path d="M22.7 16.7c0-4 1.9-7.7 4.8-10C25.4 5 22.6 4 19.7 4 12.7 4 7 9.7 7 16.7s5.7 12.7 12.7 12.7c3 0 5.7-1 7.8-2.7-2.9-2.4-4.8-6-4.8-10" fill="#eb001b"/><path d="M48.1 16.7c0 7-5.7 12.7-12.7 12.7-3 0-5.7-1-7.8-2.7 3-2.3 4.8-5.9 4.8-10 0-4-1.9-7.7-4.8-10C29.7 5 32.4 4 35.4 4c7 0 12.7 5.7 12.7 12.7" fill="#f79e1b"/></g></svg>