<svg viewBox="0 0 55 16" xmlns="http://www.w3.org/2000/svg"><path d="M42.2 5h-2.9c-.2 0-.3.2-.4.3l-1.2 7.6c0 .2.1.3.3.3h1.6c.2 0 .3-.1.3-.3l.3-2.2c0-.2.2-.3.4-.3h.9c2 0 3.1-.9 3.4-2.8.2-.8 0-1.5-.3-1.9-.7-.5-1.5-.7-2.4-.7m.3 2.8c-.2 1-.9 1-1.7 1h-.5l.3-2c0-.1.1-.2.3-.2h.2c.5 0 1 0 1.3.3.1.2.1.5.1.9" fill="#139ad6"/><path d="M21.1 5h-2.9c-.2 0-.3.2-.4.3l-1.2 7.6c0 .2.1.3.3.3h1.4c.2 0 .3-.2.4-.3l.3-2.1c0-.2.2-.3.4-.3h.9c2 0 3.1-.9 3.4-2.8.2-.8 0-1.5-.3-1.9-.6-.6-1.3-.8-2.3-.8m.3 2.8c-.2 1-.9 1-1.7 1h-.4l.3-2c0-.1.1-.2.3-.2h.1c.5 0 1 0 1.3.3.1.2.2.5.1.9m8.5-.1h-1.4c-.1 0-.3.1-.3.2l-.1.4-.1-.2c-.3-.4-.9-.6-1.6-.6-1.6 0-2.9 1.2-3.2 2.8-.2.9.1 1.6.5 2.2s1 .7 1.8.7c1.3 0 2-.8 2-.8l-.1.4c0 .2.1.3.3.3H29c.2 0 .3-.2.4-.3l.9-4.8c-.1-.1-.3-.3-.4-.3M28 10.5c-.2.8-.8 1.4-1.6 1.4-.4 0-.8-.2-.9-.3-.2-.3-.3-.6-.3-1 .1-.8.8-1.4 1.6-1.4.4 0 .7.2.9.3.2.2.3.7.3 1" fill="#263b80"/><path d="M51 7.7h-1.4c-.1 0-.3.1-.3.2l-.1.4-.1-.2c-.3-.4-.9-.6-1.6-.6-1.6 0-2.9 1.2-3.2 2.8-.2.9.1 1.6.5 2.2s1 .7 1.8.7c1.3 0 2-.8 2-.8l-.1.4c0 .2.1.3.3.3h1.3c.2 0 .3-.2.4-.3l.8-4.8c-.1-.1-.2-.3-.3-.3m-2 2.8c-.2.8-.8 1.4-1.6 1.4-.4 0-.8-.2-.9-.3-.2-.3-.3-.6-.3-1 .1-.8.8-1.4 1.6-1.4.4 0 .7.2.9.3.3.2.4.7.3 1" fill="#139ad6"/><path d="M37.4 7.7H36c-.2 0-.3.1-.3.2l-1.9 2.9-.9-2.8c-.1-.2-.2-.3-.4-.3h-1.4c-.2 0-.3.2-.3.3l1.6 4.6-1.5 2.1c-.1.2 0 .4.2.4h1.4c.2 0 .3-.1.3-.2l4.7-6.8c.3-.1.1-.4-.1-.4" fill="#263b80"/><path d="M52.6 5.2L51.4 13c0 .2.1.3.3.3h1.2c.2 0 .3-.2.4-.3l1.2-7.6c0-.2-.1-.3-.3-.3h-1.4c0-.1-.1 0-.2.1" fill="#139ad6"/><path d="M10.1 2.4c-.6-.7-1.7-1-3.3-1H2.5c-.2 0-.5.2-.6.5L.2 13.2c0 .3.2.4.3.4h2.7l.7-4.2v.2c.1-.3.4-.6.6-.6h1.3c2.5 0 4.4-1 5-3.9v-.3c-.1 0-.1 0 0 0 .1-1-.1-1.7-.7-2.4" fill="#263b80"/><path d="M10.7 4.9v.3C10.1 8.1 8.2 9 5.7 9H4.4c-.2 0-.5.3-.6.5L3 14.8c0 .2.1.3.3.3h2.2c.3 0 .5-.2.5-.4v-.1l.5-2.6v-.2c0-.3.3-.4.5-.4h.3c2.2 0 3.9-.9 4.3-3.4.2-1 .1-2-.4-2.6 0-.2-.2-.4-.5-.5" fill="#139ad6"/><path d="M10.1 4.6h-.2c-.1 0-.2 0-.3-.1-.3-.1-.7-.1-1.1-.1H5.1c-.1 0-.1 0-.2.1-.2.1-.3.2-.3.4l-.7 4.5v.2c.1-.3.4-.6.6-.6h1.3c2.5 0 4.4-1 5-3.9 0-.1 0-.2.1-.3-.2-.1-.3-.2-.4-.2h-.4" fill="#232c65"/></svg>