<svg xmlns="http://www.w3.org/2000/svg" viewBox="0 0 597.4 179.9"><g fill="#fff"><path d="M79.9 44.7c-5.1 4.4-10.5 1.6-11-4.4-.7-9.5-2-28.2-2.7-37.7-.1-1.2.8-2.3 2.1-2.4.9-.1 2.6-.2 3.5-.2 1.2-.1 2.3.8 2.4 2.1.6 8.8 2.5 34.7 2.5 34.7s17.5-15 23.4-20.1c.9-.8 2.4-.7 3.2.2l2.2 2.8c.9 1.1.7 2.4-.2 3.2-6.4 5.5-19.1 16.3-25.4 21.8zm5.4 5.5c-4.4 5.1-1.6 10.5 4.4 11 9.5.7 28 1.7 37.5 2.4 1.2.1 2.3-.8 2.4-2.1.1-.9.3-2.8.4-3.6.1-1.2-.9-2.2-2.2-2.3-8.8-.6-34.6-2.2-34.6-2.2s15.1-17.6 20.2-23.4c.8-.9.7-2.4-.2-3.2l-2.8-2.2c-1.1-.9-2.4-.7-3.2.2-5.6 6.3-16.4 19-21.9 25.4zm19.9 56.5c.9.8 1.1 2.1.2 3.2l-2.2 2.8c-.7.9-2.3 1-3.2.2-5.9-5.1-23.6-19.8-23.6-19.8s-1.6 25.7-2.2 34.4c-.1 1.3-1.2 2.2-2.4 2.1-.9-.1-2.6-.2-3.5-.2-1.2-.1-2.2-1.2-2.1-2.4.7-9.5 2-28.1 2.7-37.6.4-6 5.9-9 11-4.6 6.1 5.3 18.6 16.1 25.3 21.9zm1.8-1.8c.8.9 2.1 1.1 3.2.2l2.8-2.2c.9-.7 1-2.3.2-3.2-5.1-5.9-20-23.1-20-23.1s25.8-1.9 34.6-2.5c1.3-.1 2.2-1.2 2.1-2.4-.1-.9-.2-2.6-.2-3.5-.1-1.2-1.2-2.2-2.4-2.1-9.5.7-28.2 1.9-37.7 2.5-6 .4-8.8 5.9-4.4 11 5.5 6.3 16.3 19 21.8 25.3zm-82.2-82c-.9-.8-1.1-2.1-.2-3.2l2.2-2.8c.7-.9 2.3-1 3.2-.2 5.9 5.1 23.5 19.9 23.5 19.9s1.6-25.8 2.2-34.5C55.8.8 57-.1 58.1 0c.9.1 2.6.2 3.5.2 1.2.1 2.2 1.2 2.1 2.4-.7 9.5-1.8 28.1-2.5 37.6-.4 6-5.9 8.8-11 4.4-6.3-5.6-19-16.1-25.4-21.7zM23 24.7c-.8-.9-2.1-1.1-3.2-.2L17 26.7c-.9.7-1 2.3-.2 3.2 5.1 5.9 20.1 23.2 20.1 23.2s-26 1.8-34.8 2.4c-1.3.1-2.2 1.2-2.1 2.4.1.9.2 2.6.2 3.5.1 1.2 1.2 2.2 2.4 2.1 9.5-.7 28.3-1.7 37.8-2.4 6.2-.4 8.2-6.6 4.4-11-5.4-6.3-16.3-19-21.8-25.4zM50.1 85c5.1-4.4 10.5-1.6 11 4.4.7 9.5 2 28.1 2.7 37.6.1 1.2-.8 2.3-2.1 2.4-.9.1-2.6.2-3.5.2-1.2.1-2.3-.8-2.4-2.1-.6-8.8-2.4-34.7-2.4-34.7S35.9 107.6 30 112.7c-.9.8-2.4.7-3.2-.2l-2.2-2.8c-.9-1.1-.7-2.4.2-3.2 6.3-5.4 19-16 25.3-21.5zm-5.2-5.1c4.4-5.1 1.6-10.5-4.4-11-9.5-.7-28.3-2.2-37.8-2.9-1.2-.1-2.3.8-2.4 2.1-.1.9-.2 2.6-.2 3.5-.1 1.2.8 2.3 2.1 2.4 8.8.6 34.8 2.2 34.8 2.2S22 93.8 16.9 99.6c-.8.9-.7 2.4.2 3.2l2.8 2.2c1.1.9 2.4.7 3.2-.2 5.4-6.3 16.3-18.5 21.8-24.9zM185.3 129.9c0 10.5-8.8 19.5-19.3 19.5-9.4 0-19.2-7.3-19.2-19.5 0-11.1 8.8-19.3 19.2-19.3 10.2.1 19.3 8.4 19.3 19.3m7.9 0c0-15.2-12.2-27.4-27.2-27.4-8.3 0-15.7 3.7-19.8 8.1 0 0-1.3-3.5-1.7-4.8-.4-1.2-1.6-2.2-2.8-2.2-1.7 0-3 1.3-3 3.1v70.9c0 1.3 1 2.3 2.3 2.3h3.6c1.3 0 2.3-1 2.3-2.3v-28.2c4.8 5 12 8 19.2 8 14.9.1 27.1-12.3 27.1-27.5M423.8 102.6h-2.7c-6.3.4-12.4 4-14.4 7.8 0 0-.6-3.8-.9-4.8-.4-1.3-1.6-2-2.8-2-1.6 0-3.1 1.2-3.1 3.1V154c0 1.3 1 2.3 2.3 2.3h3.5c1.3 0 2.3-1 2.3-2.3v-29.2c0-7.9 6.2-13.9 13.7-14.2h2.2c1.3 0 2.3-1 2.3-2.3v-3.6c-.3-1.1-1.3-2.1-2.4-2.1M280.2 157.3c-9.1 0-15.2-5.3-16.4-6.2l-.1-.1c-1.6-1.3-1.7-2.8-.6-4.3l1.1-1.4c.5-.6 1.1-1.3 2.1-1.4.7-.1 1.4.2 2.1.8 1.4 1.2 6.3 5 11.7 5 5 0 8.5-2.9 8.5-7 0-3.9-3.1-6.5-12-10.2-7.7-3.3-13.7-6.6-13.7-16 0-5.7 4.5-14.2 17-14.2 7.2 0 12.5 3.5 13.2 3.9.5.3 1.1.9 1.3 1.7.1.6.2 1.6-.4 2.6l-.7 1.3c-.6.9-1.8 2.3-4.4.9-3.1-1.8-5.4-2.8-9.1-2.8-7 0-8.8 4.2-8.8 6.7 0 4.3 3 6.2 9.1 8.6 9.3 3.8 17.1 7.6 17.1 17.4.2 8.2-7.5 14.7-17 14.7M227.9 149.3c-10.6 0-19.3-8.6-19.3-19.4 0-10.7 8.6-19.4 19.3-19.4 10.5 0 19 8.6 19.1 19.4 0 10.8-8.5 19.4-19.1 19.4m-.1-46.9c-15 0-27.3 12.3-27.3 27.5s12.2 27.5 27.3 27.5c15 0 27.3-12.3 27.3-27.5s-12.2-27.5-27.3-27.5M331.4 110.6h-11.5v43.5c0 1.2-1 2.2-2.2 2.2h-3.5c-1.2 0-2.2-1-2.2-2.2v-43.5h-4.4c-1.6 0-3-1.3-3-2.9 0-1.3.7-2.4 2-2.9 1.4-.5 5.3-2.3 5.3-2.3V82.3c0-1.2 1.1-2.2 2.3-2.2h3.5c1.2 0 2.1 1 2.1 2.2v20.2h11.6c1.2 0 2.2 1 2.2 2.2v3.5c0 1.4-.9 2.4-2.2 2.4M452.3 117.3l-21.2-34.1c-.9-1.4 0-3 1.9-3h5.9c.8 0 1.5.4 1.9 1l16.8 28.8h.1l17-28.8c.3-.5 1-1 1.9-1h5.9c1.9 0 2.7 1.6 1.9 3l-21.2 34.1 22 36c.9 1.5 0 3-1.9 3h-5c-.9 0-1.6-.5-1.9-1l-18.6-30.8h-.1L439 155.4c-.3.5-1 1-1.8 1h-5c-2 0-2.8-1.6-2-3zM515.1 117.3l-21.2-34.1c-.9-1.4 0-3 1.9-3h5.9c.8 0 1.5.4 1.9 1l16.8 28.8h.1l17-28.8c.3-.5 1-1 1.8-1h5.9c1.8 0 2.7 1.6 1.8 3l-21.2 34.1 22 36c.9 1.5 0 3-1.8 3h-5c-.9 0-1.6-.5-1.9-1l-18.6-30.8h-.1L502 155.3c-.3.5-1 1-1.9 1h-5c-2 0-2.8-1.6-2-3zM555.5 82.2c0-1.1.9-2.1 2.1-2.1h4.2c1.1 0 2.1 1 2.1 2.1V149h31.4c1.2 0 2.1 1 2.1 2.1v3.2c0 1.1-.9 2.1-2.1 2.1h-37.7c-1.2 0-2.1-1-2.1-2.1zM346.7 123.2c2.7-7.4 9.9-12.7 18.2-12.7 8.4 0 15.5 5.3 18.2 12.7zm45.7 5.1c-.8-14.6-13-26.1-27.8-25.9-14.7.2-26.8 12.1-27.2 26.9-.4 15.5 12.1 28.2 27.5 28.2 9.7 0 18.3-5 23.2-12.7.6-1 .4-2.3-.5-3l-3-2.4c-1-.8-2.4-.5-3.1.5-3.4 5.6-9.6 9.4-16.6 9.4-10.3 0-18.7-8-19.4-18H390c1.3 0 2.4-1.1 2.4-2.4v-.6M443.5 41.3c2.2.8 4.5 2.5 4.5 6 0 4.2-3.6 7.3-8.2 7.3h-9.1c-.4 0-.7-.3-.7-.7V29.1c0-.4.3-.7.7-.7h8.6c4.5 0 7.9 3 7.9 7 0 2.8-1.8 4.8-3.7 5.9zm-4.6-1.9c1.9 0 3.2-1.5 3.2-3.4s-1.2-3.2-3.2-3.2h-4.1v6.6zm.6 10.8c1.9 0 3.3-1.5 3.3-3.4s-1.4-3.3-3.3-3.3h-4.6v6.7zM452.9 29.1c0-.4.3-.7.7-.7h3.6c.4 0 .7.3.7.7v15.6c0 3.2 2.2 5.4 5.4 5.4 3.3 0 5.5-2.2 5.5-5.4V29.1c0-.4.3-.7.7-.7h3.6c.4 0 .7.3.7.7v15.8c0 5.7-4.5 10-10.5 10-5.9 0-10.4-4.3-10.4-10zM478.6 52.1c-.4-.3-.5-.5-.2-1.1l1.4-2.3c.3-.5.9-.5 1.3-.3 1.5 1.2 3.2 2.3 5.7 2.3 2 0 3.4-1.3 3.4-2.9 0-1.9-1.6-3.2-4.8-4.5-3.5-1.4-7.1-3.7-7.1-8.1 0-3.3 2.5-7.2 8.5-7.2 3.8 0 6.8 2 7.5 2.5.4.2.5.9.2 1.2l-1.4 2.1c-.3.5-.9.8-1.3.5-1.6-1-3.2-2.1-5.2-2.1-2.1 0-3.3 1.2-3.3 2.6 0 1.8 1.4 3 4.4 4.2 3.6 1.5 7.9 3.6 7.9 8.5 0 3.9-3.3 7.4-8.6 7.4-4.8.1-7.3-1.9-8.4-2.8zM500.1 29.1c0-.4.3-.7.7-.7h3.5c.4 0 .7.3.7.7v24.8c0 .4-.3.7-.7.7h-3.5c-.4 0-.7-.3-.7-.7zM511.4 28.7c0-.4.3-.7.7-.7h.6c.3 0 .5.1.6.3l15.2 16.2h.1V29.1c0-.4.3-.7.7-.7h3.5c.4 0 .7.3.7.7v25.2c0 .4-.3.7-.7.7h-.5c-.3 0-.5-.1-.6-.3l-15.3-16.9h-.1v16.1c0 .4-.3.7-.7.7h-3.4c-.4 0-.7-.3-.7-.7zM539.9 29.1c0-.4.3-.7.7-.7h15.2c.4 0 .7.3.7.7v3.1c0 .4-.3.7-.7.7h-11.1V39h9.3c.4 0 .7.3.7.7v3.1c0 .4-.3.7-.7.7h-9.3v6.6h11.1c.4 0 .7.3.7.7v3.1c0 .4-.3.7-.7.7h-15.2c-.4 0-.7-.3-.7-.7zM560.1 52.1c-.4-.3-.5-.5-.2-1.1l1.4-2.3c.3-.5.9-.5 1.3-.3 1.5 1.2 3.2 2.3 5.7 2.3 2 0 3.4-1.3 3.4-2.9 0-1.9-1.6-3.2-4.8-4.5-3.5-1.4-7.1-3.7-7.1-8.1 0-3.3 2.5-7.2 8.5-7.2 3.8 0 6.8 2 7.5 2.5.4.2.5.9.2 1.2l-1.4 2.1c-.3.5-.9.8-1.3.5-1.6-1-3.2-2.1-5.2-2.1-2.1 0-3.3 1.2-3.3 2.6 0 1.8 1.4 3 4.4 4.2 3.6 1.5 7.9 3.6 7.9 8.5 0 3.9-3.3 7.4-8.6 7.4-4.8.1-7.3-1.9-8.4-2.8zM580.5 52.1c-.4-.3-.5-.5-.2-1.1l1.4-2.3c.3-.5.9-.5 1.3-.3 1.5 1.2 3.2 2.3 5.7 2.3 2 0 3.4-1.3 3.4-2.9 0-1.9-1.6-3.2-4.8-4.5-3.5-1.4-7.1-3.7-7.1-8.1 0-3.3 2.5-7.2 8.5-7.2 3.8 0 6.8 2 7.5 2.5.4.2.5.9.2 1.2l-1.4 2.1c-.3.5-.9.8-1.3.5-1.6-1-3.2-2.1-5.2-2.1-2.1 0-3.3 1.2-3.3 2.6 0 1.8 1.4 3 4.4 4.2 3.6 1.5 7.9 3.6 7.9 8.5 0 3.9-3.3 7.4-8.6 7.4-4.9.1-7.3-1.9-8.4-2.8z"/></g></svg>