<svg viewBox="0 0 56 18" xmlns="http://www.w3.org/2000/svg"><path d="M20.5 16.5l2.9-16h4.4l-2.7 16z" fill="#3c58bf"/><path d="M20.5 16.5l3.7-16h3.6l-2.7 16z" fill="#293688"/><path d="M41.2.7c-.9-.3-2.4-.7-4.1-.7-4.4 0-7.6 2.2-7.6 5.4 0 2.4 2.2 3.6 4 4.4s2.3 1.3 2.3 2c0 1.1-1.4 1.6-2.7 1.6-1.8 0-2.8-.3-4.3-.9l-.6-.3-.6 3.8c1.1.4 3 .9 5.1.9 4.7 0 7.8-2.2 7.8-5.6 0-1.9-1.2-3.3-3.8-4.4C35 6 34 5.6 34 4.8c0-.7.8-1.4 2.6-1.4 1.5 0 2.6.3 3.4.6l.4.2z" fill="#3c58bf"/><path d="M41.2.7c-.9-.3-2.4-.7-4.1-.7-4.4 0-6.8 2.2-6.8 5.4 0 2.4 1.4 3.6 3.2 4.4s2.3 1.3 2.3 2c0 1.1-1.4 1.6-2.7 1.6-1.8 0-2.8-.3-4.3-.9l-.6-.3-.6 3.8c1.1.4 3 .9 5.1.9 4.7 0 7.8-2.2 7.8-5.6 0-1.9-1.2-3.3-3.8-4.4C35 6 34 5.6 34 4.8c0-.7.8-1.4 2.6-1.4 1.5 0 2.6.3 3.4.6l.4.2z" fill="#293688"/><path d="M48.8.5c-1.1 0-1.9.1-2.3 1.2l-6.7 14.8h4.8l.9-2.7h5.7l.5 2.7H56L52.3.5zm-2 10.7c.3-.8 1.8-4.7 1.8-4.7s.4-1 .6-1.6l.3 1.5s.9 4 1.1 4.9z" fill="#3c58bf"/><path d="M49.9.5c-1.1 0-1.9.1-2.3 1.2l-7.7 14.8h4.8l.9-2.7h5.7l.5 2.7H56L52.3.5zm-3.1 10.7c.4-.9 1.8-4.7 1.8-4.7s.4-1 .6-1.6l.3 1.5s.9 4 1.1 4.9z" fill="#293688"/><path d="M12.4 11.7L12 9.4c-.8-2.7-3.4-5.6-6.2-7l4 14.2h4.8l7.2-16H17z" fill="#3c58bf"/><path d="M12.4 11.7L12 9.4c-.8-2.7-3.4-5.6-6.2-7l4 14.2h4.8l7.2-16h-3.9z" fill="#293688"/><path d="M0 .5l.8.2C6.5 2 10.4 5.4 11.9 9.4l-1.6-7.6C10 .7 9.2.5 8.3.5H0z" fill="#ffbc00"/><path d="M0 .5c5.7 1.3 10.4 4.8 11.9 8.8L10.4 3c-.3-1-1.2-1.7-2.1-1.7z" fill="#f7981d"/><path d="M0 .5c5.7 1.3 10.4 4.8 11.9 8.8l-1.1-3.5c-.2-1-.6-2.1-1.8-2.5z" fill="#ed7c00"/><g fill="#051244"><path d="M16.8 11.2l-3-3-1.4 3.4-.4-2.3c-.8-2.7-3.4-5.6-6.2-7l4 14.2h4.8zm8.3 5.3l-3.9-3.9-.7 3.9zM35.3 11c.4.4.5.6.4 1 0 1.1-1.4 1.6-2.7 1.6-1.8 0-2.8-.3-4.3-.9l-.6-.3-.6 3.6c1.1.4 3 .9 5.1.9 2.8 0 5.2-.8 6.5-2.2zm5.1 5.5h4.2l.9-2.7h5.7l.5 2.7H56L54.5 10l-5.3-5.2.3 1.4s.9 4 1.1 4.9h-3.7c.4-.9 1.8-4.7 1.8-4.7s.4-1 .6-1.6"/></g></svg>